<?xml version="1.0" encoding="utf-8"?>
<!-- Generator: Adobe Illustrator 17.0.0, SVG Export Plug-In . SVG Version: 6.00 Build 0)  -->
<!DOCTYPE svg PUBLIC "-//W3C//DTD SVG 1.1//EN" "http://www.w3.org/Graphics/SVG/1.1/DTD/svg11.dtd">
<svg version="1.1" id="Layer_1" xmlns="http://www.w3.org/2000/svg" xmlns:xlink="http://www.w3.org/1999/xlink" x="0px" y="0px"
	 width="851px" height="315px" viewBox="0 0 851 315" enable-background="new 0 0 851 315" xml:space="preserve">
<g>
	<path fill="#4E5867" d="M577.973,15.08H273.027c-2.776,0-5.027,2.25-5.027,5.027v274.787c0,2.777,2.251,5.027,5.027,5.027h304.947
		c2.776,0,5.027-2.25,5.027-5.027v-53.617c0-2.777-2.251-5.027-5.027-5.027s-5.027,2.25-5.027,5.027v48.59H278.053V65.346h294.894
		V221.17c0,2.777,2.251,5.027,5.027,5.027s5.027-2.25,5.027-5.027V20.106C583,17.33,580.749,15.08,577.973,15.08z M278.053,25.133
		h185.984v30.16H278.053V25.133z M474.09,55.293v-30.16h98.856v30.16H474.09z"/>
	<path fill="#0FC3B8" d="M523.686,34.851c-2.956,0-5.362,2.405-5.362,5.362s2.405,5.362,5.362,5.362s5.362-2.405,5.362-5.362
		S526.642,34.851,523.686,34.851z"/>
	<path fill="#0FC3B8" d="M496.207,34.851c-2.956,0-5.362,2.405-5.362,5.362s2.405,5.362,5.362,5.362
		c2.956,0,5.362-2.405,5.362-5.362S499.164,34.851,496.207,34.851z"/>
	<path fill="#0FC3B8" d="M551.165,34.851c-2.956,0-5.362,2.405-5.362,5.362s2.405,5.362,5.362,5.362
		c2.956,0,5.362-2.405,5.362-5.362S554.121,34.851,551.165,34.851z"/>
	<path fill="#0FC3B8" d="M367.67,151.461c1.976-0.247,3.62-1.637,4.192-3.545l11.563-38.6c0.796-2.659-0.713-5.461-3.372-6.258
		c-2.658-0.796-5.461,0.713-6.258,3.373l-8.293,27.684l-7.994-13.343c-0.908-1.516-2.545-2.444-4.312-2.444
		c-1.767,0-3.404,0.928-4.312,2.444l-7.994,13.343l-8.292-27.678c-0.796-2.659-3.598-4.169-6.258-3.373
		c-2.659,0.796-4.169,3.598-3.372,6.258l11.562,38.595c0.572,1.908,2.216,3.298,4.191,3.545c0.209,0.026,0.418,0.039,0.625,0.039
		c1.751,0,3.395-0.915,4.311-2.444l9.539-15.922l9.539,15.922C363.759,150.764,365.696,151.709,367.67,151.461L367.67,151.461z"/>
	<path fill="#0FC3B8" d="M406.304,151.456c0.209,0.026,0.418,0.039,0.625,0.039c1.751,0,3.395-0.916,4.311-2.444l9.539-15.922
		l9.539,15.922c1.023,1.708,2.96,2.652,4.935,2.405c1.976-0.247,3.62-1.637,4.192-3.545l11.563-38.6
		c0.796-2.659-0.713-5.461-3.372-6.258c-2.659-0.797-5.461,0.712-6.258,3.373l-8.293,27.684l-7.994-13.343
		c-0.908-1.516-2.545-2.444-4.312-2.444s-3.404,0.928-4.312,2.444l-7.993,13.343l-8.292-27.679c-0.796-2.659-3.597-4.17-6.258-3.373
		c-2.659,0.796-4.169,3.598-3.373,6.258l11.562,38.596C402.684,149.819,404.328,151.209,406.304,151.456z"/>
	<path fill="#0FC3B8" d="M515.218,103.049c-2.659-0.796-5.461,0.713-6.258,3.373l-8.293,27.683l-7.994-13.343
		c-0.908-1.516-2.545-2.444-4.312-2.444c-1.767,0-3.404,0.928-4.312,2.444l-7.994,13.343l-8.292-27.678
		c-0.797-2.659-3.597-4.169-6.258-3.373c-2.659,0.796-4.169,3.598-3.373,6.258l11.562,38.595c0.572,1.908,2.216,3.298,4.191,3.545
		c1.976,0.247,3.911-0.696,4.935-2.405l9.539-15.922l9.539,15.922c0.915,1.527,2.56,2.444,4.311,2.444
		c0.207,0,0.416-0.013,0.625-0.039c1.976-0.247,3.62-1.637,4.191-3.545l11.563-38.6
		C519.387,106.647,517.877,103.845,515.218,103.049z"/>
	<path fill="#0FC3B8" d="M359.618,179.984c0-2.777-2.251-5.027-5.027-5.027h-26.809c-2.776,0-5.027,2.25-5.027,5.027v26.809
		c0,2.777,2.251,5.027,5.027,5.027h26.809c2.776,0,5.027-2.25,5.027-5.027V179.984z M349.565,201.766H332.81V185.01h16.755V201.766z
		"/>
	<path fill="#0FC3B8" d="M354.591,221.872h-26.809c-2.776,0-5.027,2.25-5.027,5.027v26.809c0,2.777,2.251,5.027,5.027,5.027h26.809
		c2.776,0,5.027-2.25,5.027-5.027v-26.809C359.618,224.122,357.367,221.872,354.591,221.872z M349.565,248.68H332.81v-16.755h16.755
		V248.68z"/>
	<path fill="#0FC3B8" d="M513.775,188.361h-20.106c-2.776,0-5.027,2.25-5.027,5.027c0,2.777,2.251,5.027,5.027,5.027h20.106
		c2.776,0,5.027-2.25,5.027-5.027C518.802,190.611,516.551,188.361,513.775,188.361z"/>
	<path fill="#0FC3B8" d="M473.562,188.361h-98.864c-2.776,0-5.027,2.25-5.027,5.027c0,2.777,2.251,5.027,5.027,5.027h98.865
		c2.776,0,5.027-2.25,5.027-5.027C478.59,190.611,476.338,188.361,473.562,188.361z"/>
	<path fill="#0FC3B8" d="M513.775,235.276h-20.106c-2.776,0-5.027,2.25-5.027,5.027c0,2.777,2.251,5.027,5.027,5.027h20.106
		c2.776,0,5.027-2.25,5.027-5.027C518.802,237.526,516.551,235.276,513.775,235.276z"/>
	<path fill="#0FC3B8" d="M473.562,235.276h-98.864c-2.776,0-5.027,2.25-5.027,5.027c0,2.777,2.251,5.027,5.027,5.027h98.865
		c2.776,0,5.027-2.25,5.027-5.027C478.59,237.526,476.338,235.276,473.562,235.276z"/>
</g>
</svg>
