<?xml version="1.0" encoding="utf-8"?>
<!-- Generator: Adobe Illustrator 17.0.0, SVG Export Plug-In . SVG Version: 6.00 Build 0)  -->
<!DOCTYPE svg PUBLIC "-//W3C//DTD SVG 1.1//EN" "http://www.w3.org/Graphics/SVG/1.1/DTD/svg11.dtd">
<svg version="1.1" xmlns="http://www.w3.org/2000/svg" xmlns:xlink="http://www.w3.org/1999/xlink" x="0px" y="0px" width="851px"
	 height="315px" viewBox="0 0 851 315" enable-background="new 0 0 851 315" xml:space="preserve">
<g id="Layer_1">
	<g>
		<g>
			<path fill="#4E5867" d="M582.999,157.5c0-6.657-3.699-12.644-9.655-15.626l-23.454-11.727l23.454-11.726
				c0.001-0.001,0.002-0.001,0.002-0.001c5.955-2.981,9.654-8.968,9.654-15.625c0-6.656-3.699-12.643-9.655-15.625L440.936,20.967
				c-9.667-4.829-21.207-4.829-30.875,0.001L277.654,87.173c-5.954,2.98-9.654,8.966-9.654,15.623
				c0,6.657,3.699,12.644,9.655,15.626l23.453,11.726l-23.456,11.728c-5.954,2.981-9.652,8.967-9.652,15.624
				c0,6.657,3.699,12.644,9.655,15.625l23.453,11.727l-23.451,11.726c-5.954,2.975-9.655,8.959-9.657,15.617
				c-0.002,6.662,3.696,12.652,9.655,15.634l132.407,66.204c4.833,2.415,10.134,3.621,15.436,3.621
				c5.303,0,10.605-1.208,15.439-3.622l132.407-66.204c5.957-2.981,9.656-8.971,9.654-15.633
				c-0.002-6.658-3.704-12.642-9.655-15.615l-23.454-11.727l23.456-11.728C579.301,170.144,582.999,164.158,582.999,157.5z
				 M284.134,105.47c-1.439-0.72-1.653-1.985-1.653-2.674s0.215-1.953,1.651-2.672l132.403-66.202
				c2.807-1.403,5.887-2.103,8.966-2.103c3.078,0,6.157,0.701,8.962,2.102l132.403,66.201c1.438,0.72,1.653,1.984,1.653,2.673
				s-0.214,1.953-1.653,2.674l-132.401,66.2c-5.614,2.804-12.316,2.804-17.927,0.001L284.134,105.47z M566.87,209.533
				c1.433,0.716,1.648,1.978,1.648,2.668c0.001,0.691-0.214,1.958-1.651,2.676l-132.403,66.202
				c-5.614,2.804-12.316,2.805-17.927,0.001l-132.402-66.202c-1.439-0.72-1.654-1.987-1.653-2.677c0-0.688,0.214-1.951,1.651-2.668
				l33.168-16.584l92.762,46.381c4.833,2.415,10.134,3.621,15.436,3.621c5.303,0,10.605-1.208,15.439-3.622l92.76-46.38
				L566.87,209.533z M566.867,160.173l-132.402,66.202c-5.614,2.804-12.316,2.805-17.927,0.001l-132.402-66.201
				c-1.439-0.72-1.653-1.984-1.653-2.673c0-0.69,0.214-1.953,1.651-2.673l33.168-16.584l92.762,46.381
				c4.833,2.415,10.134,3.621,15.436,3.621c5.301,0,10.605-1.207,15.439-3.622l92.761-46.38l33.166,16.583
				c1.439,0.72,1.653,1.984,1.653,2.674C568.518,158.189,568.303,159.454,566.867,160.173z"/>
		</g>
	</g>
</g>
<g id="Layer_2">
	<g>
		<path fill="#0FC3B8" d="M439.937,184.623c-4.834,2.415-10.137,3.622-15.439,3.622s-10.603-1.206-15.436-3.621L316.3,138.244
			l-33.168,16.584c-1.437,0.719-1.651,1.982-1.651,2.673c0,0.689,0.214,1.953,1.653,2.673l132.403,66.201
			c5.611,2.804,12.313,2.804,17.927-0.001l132.402-66.202c1.437-0.719,1.651-1.984,1.651-2.673c0-0.69-0.214-1.953-1.653-2.674
			l-33.166-16.583L439.937,184.623z"/>
	</g>
</g>
</svg>
