<?xml version="1.0" encoding="utf-8"?>
<!-- Generator: Adobe Illustrator 17.0.0, SVG Export Plug-In . SVG Version: 6.00 Build 0)  -->
<!DOCTYPE svg PUBLIC "-//W3C//DTD SVG 1.1//EN" "http://www.w3.org/Graphics/SVG/1.1/DTD/svg11.dtd">
<svg version="1.1" xmlns="http://www.w3.org/2000/svg" xmlns:xlink="http://www.w3.org/1999/xlink" x="0px" y="0px" width="851px"
	 height="315px" viewBox="0 0 851 315" enable-background="new 0 0 851 315" xml:space="preserve">
<g id="Layer_1">
	<g>
		<g>
			<path fill="#4E5867" d="M567.546,23.674H430.432v-5.59c0-2.724-2.208-4.932-4.932-4.932s-4.932,2.208-4.932,4.932v5.59H283.454
				c-8.522,0-15.454,6.932-15.454,15.454v236.743c0,8.522,6.932,15.454,15.454,15.454h137.114v5.59c0,2.724,2.208,4.932,4.932,4.932
				s4.932-2.208,4.932-4.932v-5.59h137.114c8.522,0,15.454-6.932,15.454-15.454V39.128C583,30.607,576.068,23.674,567.546,23.674z
				 M277.864,39.128c0-3.082,2.508-5.59,5.59-5.59h10.851v16.44h-16.441V39.128z M420.568,232.89l-35.3-94.131h35.3V232.89z
				 M371.034,128.893h-38.846l28.252-28.252L371.034,128.893z M369.485,96.67h43.042l-32.281,28.695L369.485,96.67z
				 M374.733,138.758l35.936,95.83l-79.859-95.83H374.733z M420.568,128.893h-29.444l29.444-26.173V128.893z M420.568,86.806
				h-58.199c-1.308,0-2.562,0.519-3.487,1.445l-42.088,42.088c-1.804,1.804-1.935,4.686-0.301,6.645l104.076,124.891v19.587H283.454
				c-3.082,0-5.59-2.508-5.59-5.59V59.843h142.704V86.806z M420.568,49.979H304.169v-16.44h116.399V49.979z M530.391,33.539h16.44
				v16.44h-16.44V33.539z M504.086,33.539h16.44v16.44h-16.44L504.086,33.539L504.086,33.539z M430.432,33.539h63.789v16.44h-63.789
				V33.539z M573.136,275.872c0,3.082-2.508,5.59-5.59,5.59H430.432V59.843h142.704V275.872L573.136,275.872z M573.136,49.979
				h-16.44v-16.44h10.851c3.082,0,5.59,2.508,5.59,5.59L573.136,49.979L573.136,49.979z"/>
		</g>
	</g>
	<g>
		<g>
			<path fill="#0FC3B8" d="M462.327,92.067h-10.522c-2.724,0-4.932,2.208-4.932,4.932c0,2.724,2.208,4.932,4.932,4.932h10.522
				c2.724,0,4.932-2.208,4.932-4.932C467.259,94.275,465.05,92.067,462.327,92.067z"/>
		</g>
	</g>
	<g>
		<g>
			<path fill="#0FC3B8" d="M462.327,134.154h-10.522c-2.724,0-4.932,2.208-4.932,4.932c0,2.724,2.208,4.932,4.932,4.932h10.522
				c2.724,0,4.932-2.208,4.932-4.932C467.259,136.362,465.05,134.154,462.327,134.154z"/>
		</g>
	</g>
	<g>
		<g>
			<path fill="#0FC3B8" d="M478.109,113.111h-10.522c-2.724,0-4.932,2.208-4.932,4.932c0,2.724,2.208,4.932,4.932,4.932h10.522
				c2.724,0,4.932-2.208,4.932-4.932C483.042,115.319,480.834,113.111,478.109,113.111z"/>
		</g>
	</g>
	<g>
		<g>
			<path fill="#0FC3B8" d="M551.763,92.067h-68.393c-2.724,0-4.932,2.208-4.932,4.932c0,2.724,2.208,4.932,4.932,4.932h68.393
				c2.724,0,4.932-2.208,4.932-4.932C556.696,94.275,554.487,92.067,551.763,92.067z"/>
		</g>
	</g>
	<g>
		<g>
			<path fill="#0FC3B8" d="M551.763,134.154h-68.393c-2.724,0-4.932,2.208-4.932,4.932c0,2.724,2.208,4.932,4.932,4.932h68.393
				c2.724,0,4.932-2.208,4.932-4.932C556.696,136.362,554.487,134.154,551.763,134.154z"/>
		</g>
	</g>
	<g>
		<g>
			<path fill="#0FC3B8" d="M551.763,113.111h-52.609c-2.724,0-4.932,2.208-4.932,4.932c0,2.724,2.208,4.932,4.932,4.932h52.609
				c2.724,0,4.932-2.208,4.932-4.932C556.696,115.319,554.487,113.111,551.763,113.111z"/>
		</g>
	</g>
	<g>
		<g>
			<path fill="#0FC3B8" d="M478.109,155.198h-10.522c-2.724,0-4.932,2.208-4.932,4.932s2.208,4.932,4.932,4.932h10.522
				c2.724,0,4.932-2.208,4.932-4.932C483.042,157.406,480.834,155.198,478.109,155.198z"/>
		</g>
	</g>
	<g>
		<g>
			<path fill="#0FC3B8" d="M551.763,155.198h-52.609c-2.724,0-4.932,2.208-4.932,4.932s2.208,4.932,4.932,4.932h52.609
				c2.724,0,4.932-2.208,4.932-4.932C556.696,157.406,554.487,155.198,551.763,155.198z"/>
		</g>
	</g>
	<g>
		<g>
			<path fill="#0FC3B8" d="M462.327,176.242h-10.522c-2.724,0-4.932,2.208-4.932,4.932c0,2.724,2.208,4.932,4.932,4.932h10.522
				c2.724,0,4.932-2.208,4.932-4.932C467.259,178.451,465.05,176.242,462.327,176.242z"/>
		</g>
	</g>
	<g>
		<g>
			<path fill="#0FC3B8" d="M462.327,218.33h-10.522c-2.724,0-4.932,2.208-4.932,4.932s2.208,4.932,4.932,4.932h10.522
				c2.724,0,4.932-2.208,4.932-4.932S465.05,218.33,462.327,218.33z"/>
		</g>
	</g>
	<g>
		<g>
			<path fill="#0FC3B8" d="M478.109,197.286h-10.522c-2.724,0-4.932,2.208-4.932,4.932s2.208,4.932,4.932,4.932h10.522
				c2.724,0,4.932-2.208,4.932-4.932S480.834,197.286,478.109,197.286z"/>
		</g>
	</g>
	<g>
		<g>
			<path fill="#0FC3B8" d="M551.763,176.242h-68.393c-2.724,0-4.932,2.208-4.932,4.932c0,2.724,2.208,4.932,4.932,4.932h68.393
				c2.724,0,4.932-2.208,4.932-4.932C556.696,178.451,554.487,176.242,551.763,176.242z"/>
		</g>
	</g>
	<g>
		<g>
			<path fill="#0FC3B8" d="M551.763,218.33h-68.393c-2.724,0-4.932,2.208-4.932,4.932s2.208,4.932,4.932,4.932h68.393
				c2.724,0,4.932-2.208,4.932-4.932S554.487,218.33,551.763,218.33z"/>
		</g>
	</g>
	<g>
		<g>
			<path fill="#0FC3B8" d="M551.763,197.286h-52.609c-2.724,0-4.932,2.208-4.932,4.932s2.208,4.932,4.932,4.932h52.609
				c2.724,0,4.932-2.208,4.932-4.932S554.487,197.286,551.763,197.286z"/>
		</g>
	</g>
	<g>
		<g>
			<path fill="#0FC3B8" d="M478.109,239.374h-10.522c-2.724,0-4.932,2.208-4.932,4.932c0,2.724,2.208,4.932,4.932,4.932h10.522
				c2.724,0,4.932-2.208,4.932-4.932C483.042,241.582,480.834,239.374,478.109,239.374z"/>
		</g>
	</g>
	<g>
		<g>
			<path fill="#0FC3B8" d="M551.763,239.374h-52.609c-2.724,0-4.932,2.208-4.932,4.932c0,2.724,2.208,4.932,4.932,4.932h52.609
				c2.724,0,4.932-2.208,4.932-4.932C556.695,241.582,554.487,239.374,551.763,239.374z"/>
		</g>
	</g>
</g>
<g id="Layer_3">
	<g>
		<g>
			<path fill="#0FC3B8" d="M460.327,91.067h-10.522c-2.724,0-4.932,2.208-4.932,4.932c0,2.724,2.208,4.932,4.932,4.932h10.522
				c2.724,0,4.932-2.208,4.932-4.932C465.259,93.275,463.05,91.067,460.327,91.067z"/>
		</g>
	</g>
	<g>
		<g>
			<path fill="#0FC3B8" d="M460.327,133.154h-10.522c-2.724,0-4.932,2.208-4.932,4.932c0,2.724,2.208,4.932,4.932,4.932h10.522
				c2.724,0,4.932-2.208,4.932-4.932C465.259,135.362,463.05,133.154,460.327,133.154z"/>
		</g>
	</g>
	<g>
		<g>
			<path fill="#0FC3B8" d="M476.109,112.111h-10.522c-2.724,0-4.932,2.208-4.932,4.932c0,2.724,2.208,4.932,4.932,4.932h10.522
				c2.724,0,4.932-2.208,4.932-4.932C481.042,114.319,478.834,112.111,476.109,112.111z"/>
		</g>
	</g>
	<g>
		<g>
			<path fill="#0FC3B8" d="M549.763,91.067h-68.393c-2.724,0-4.932,2.208-4.932,4.932c0,2.724,2.208,4.932,4.932,4.932h68.393
				c2.724,0,4.932-2.208,4.932-4.932C554.696,93.275,552.487,91.067,549.763,91.067z"/>
		</g>
	</g>
	<g>
		<g>
			<path fill="#0FC3B8" d="M549.763,133.154h-68.393c-2.724,0-4.932,2.208-4.932,4.932c0,2.724,2.208,4.932,4.932,4.932h68.393
				c2.724,0,4.932-2.208,4.932-4.932C554.696,135.362,552.487,133.154,549.763,133.154z"/>
		</g>
	</g>
	<g>
		<g>
			<path fill="#0FC3B8" d="M549.763,112.111h-52.609c-2.724,0-4.932,2.208-4.932,4.932c0,2.724,2.208,4.932,4.932,4.932h52.609
				c2.724,0,4.932-2.208,4.932-4.932C554.696,114.319,552.487,112.111,549.763,112.111z"/>
		</g>
	</g>
	<g>
		<g>
			<path fill="#0FC3B8" d="M476.109,154.198h-10.522c-2.724,0-4.932,2.208-4.932,4.932s2.208,4.932,4.932,4.932h10.522
				c2.724,0,4.932-2.208,4.932-4.932C481.042,156.406,478.834,154.198,476.109,154.198z"/>
		</g>
	</g>
	<g>
		<g>
			<path fill="#0FC3B8" d="M549.763,154.198h-52.609c-2.724,0-4.932,2.208-4.932,4.932s2.208,4.932,4.932,4.932h52.609
				c2.724,0,4.932-2.208,4.932-4.932C554.696,156.406,552.487,154.198,549.763,154.198z"/>
		</g>
	</g>
	<g>
		<g>
			<path fill="#0FC3B8" d="M460.327,175.242h-10.522c-2.724,0-4.932,2.208-4.932,4.932c0,2.724,2.208,4.932,4.932,4.932h10.522
				c2.724,0,4.932-2.208,4.932-4.932C465.259,177.451,463.05,175.242,460.327,175.242z"/>
		</g>
	</g>
	<g>
		<g>
			<path fill="#0FC3B8" d="M460.327,217.33h-10.522c-2.724,0-4.932,2.208-4.932,4.932s2.208,4.932,4.932,4.932h10.522
				c2.724,0,4.932-2.208,4.932-4.932S463.05,217.33,460.327,217.33z"/>
		</g>
	</g>
	<g>
		<g>
			<path fill="#0FC3B8" d="M476.109,196.286h-10.522c-2.724,0-4.932,2.208-4.932,4.932s2.208,4.932,4.932,4.932h10.522
				c2.724,0,4.932-2.208,4.932-4.932S478.834,196.286,476.109,196.286z"/>
		</g>
	</g>
	<g>
		<g>
			<path fill="#0FC3B8" d="M549.763,175.242h-68.393c-2.724,0-4.932,2.208-4.932,4.932c0,2.724,2.208,4.932,4.932,4.932h68.393
				c2.724,0,4.932-2.208,4.932-4.932C554.696,177.451,552.487,175.242,549.763,175.242z"/>
		</g>
	</g>
	<g>
		<g>
			<path fill="#0FC3B8" d="M549.763,217.33h-68.393c-2.724,0-4.932,2.208-4.932,4.932s2.208,4.932,4.932,4.932h68.393
				c2.724,0,4.932-2.208,4.932-4.932S552.487,217.33,549.763,217.33z"/>
		</g>
	</g>
	<g>
		<g>
			<path fill="#0FC3B8" d="M549.763,196.286h-52.609c-2.724,0-4.932,2.208-4.932,4.932s2.208,4.932,4.932,4.932h52.609
				c2.724,0,4.932-2.208,4.932-4.932S552.487,196.286,549.763,196.286z"/>
		</g>
	</g>
	<g>
		<g>
			<path fill="#0FC3B8" d="M476.109,238.374h-10.522c-2.724,0-4.932,2.208-4.932,4.932c0,2.724,2.208,4.932,4.932,4.932h10.522
				c2.724,0,4.932-2.208,4.932-4.932C481.042,240.582,478.834,238.374,476.109,238.374z"/>
		</g>
	</g>
	<g>
		<g>
			<path fill="#0FC3B8" d="M549.763,238.374h-52.609c-2.724,0-4.932,2.208-4.932,4.932c0,2.724,2.208,4.932,4.932,4.932h52.609
				c2.724,0,4.932-2.208,4.932-4.932C554.695,240.582,552.487,238.374,549.763,238.374z"/>
		</g>
	</g>
</g>
<g id="Layer_2">
	<path fill="#0FC3B8" d="M420.568,86.806h-58.199c-1.308,0-2.562,0.519-3.487,1.445l-42.088,42.088
		c-1.804,1.804-1.935,4.686-0.302,6.645l104.076,124.891V273h0V72h0V86.806z M412.527,96.67l-32.281,28.695l-10.76-28.695H412.527z
		 M360.44,100.641l10.594,28.252h-38.846L360.44,100.641z M330.811,138.758h43.922l35.936,95.83L330.811,138.758z M420.568,232.89
		l-35.3-94.131h35.3V232.89z M420.568,128.893h-29.444l29.444-26.173V128.893z"/>
</g>
</svg>
