<?xml version="1.0" encoding="iso-8859-1"?>
<!-- Generator: Adobe Illustrator 19.0.0, SVG Export Plug-In . SVG Version: 6.00 Build 0)  -->
<svg xmlns="http://www.w3.org/2000/svg" xmlns:xlink="http://www.w3.org/1999/xlink" version="1.1" id="Layer_1" x="0px" y="0px" viewBox="0 0 512 512" style="enable-background:new 0 0 512 512;" xml:space="preserve" width="512px" height="512px">
<g>
	<g>
		<g>
			<path d="M508.919,444.004L406.43,341.516h67.234c5.809,0,10.52-4.711,10.52-10.52v-47.097c0-18.725-10.276-35.086-25.477-43.771     c3.717-5.376,5.902-11.889,5.902-18.905v-29.831c0-18.378-14.952-33.329-33.33-33.329h-11.506     c-7.815,0-15.049,2.509-20.963,6.749c-27.947-58.489-87.689-98.996-156.719-98.996c-68.639,0-128.097,40.049-156.243,98.005     c-5.336-3.629-11.769-5.758-18.694-5.758H55.649c-19.891,0-36.074,16.183-36.074,36.073v24.344     c0,7.877,2.545,15.168,6.846,21.107C10.699,248.124,0,264.785,0,283.899v47.097c0,5.809,4.71,10.52,10.52,10.52h91.305     c31.596,43.28,82.699,71.459,140.268,71.459c29.986,0,59.261-7.693,85.186-22.32L444.772,508.15     c2.055,2.053,4.747,3.081,7.439,3.081s5.384-1.028,7.439-3.081l49.268-49.268C513.027,454.773,513.027,448.112,508.919,444.004z      M419.773,179.103h11.506c6.776,0,12.29,5.512,12.29,12.289v29.831c0,6.776-5.513,12.29-12.29,12.29h-11.506     c-1.472,0-2.891-0.222-4.236-0.617c-0.605-16.344-3.478-32.114-8.317-47.01C409.911,181.804,414.53,179.103,419.773,179.103z      M414.992,254.554h18.805c16.182,0,29.346,13.165,29.346,29.346v36.576h-67.571C406.399,300.028,412.985,277.668,414.992,254.554     z M40.615,194.136c0-8.29,6.744-15.033,15.034-15.033h11.506c4.264,0,8.025,2.184,10.23,5.49     c-5.147,15.432-8.178,31.821-8.757,48.823c-0.484,0.058-0.973,0.097-1.473,0.097H55.649c-8.29,0-15.034-6.744-15.034-15.034     V194.136z M21.04,320.475v-36.576c0-16.182,13.165-29.346,29.346-29.346h18.796c2.055,23.638,8.865,45.932,19.471,65.922H21.04z      M452.211,485.832L336.363,369.985c-2.031-2.03-4.725-3.081-7.442-3.081c-1.934,0-3.88,0.531-5.607,1.621     c-24.293,15.315-52.379,23.409-81.222,23.409c-84.11,0-152.539-68.429-152.539-152.539S157.982,86.856,242.092,86.856     s152.539,68.429,152.539,152.539c0,29.765-8.583,58.611-24.822,83.419c-2.728,4.168-2.159,9.677,1.363,13.2l115.429,115.429     L452.211,485.832z" fill="#FFFFFF"/>
			<path d="M242.092,113.156c-69.608,0-126.239,56.631-126.239,126.239s56.631,126.239,126.239,126.239     s126.239-56.631,126.239-126.239S311.7,113.156,242.092,113.156z M242.092,344.595c-31.805,0-60.356-14.188-79.663-36.566     c2.466-19.947,20.521-30.536,40.74-33.219l30.048,47.207c1.931,3.034,5.279,4.871,8.875,4.871c3.597,0,6.944-1.837,8.875-4.871     l30.048-47.207c20.219,2.683,38.275,13.272,40.741,33.219C302.448,330.406,273.897,344.595,242.092,344.595z M245.511,253.072     h-6.838c-16.896,0-24.459-14.399-24.459-28.667v-18.41c0-14.268,7.563-28.667,24.459-28.667h6.838     c16.896,0,24.459,14.399,24.459,28.667v18.41C269.97,238.673,262.407,253.072,245.511,253.072z M256.519,274.111l-14.427,22.664     l-14.426-22.664H256.519z M282.916,253.81c5.151-8.074,8.094-18.13,8.094-29.405v-18.41c0-28.802-19.135-49.707-45.499-49.707     h-6.838c-26.364,0-45.499,20.904-45.499,49.707v18.41c0,11.275,2.943,21.331,8.094,29.405     c-24.764,2.967-43.919,14.805-53.462,32.206c-6.98-14.06-10.913-29.888-10.913-46.62c0-58.008,47.192-105.199,105.199-105.199     c58.008,0,105.199,47.191,105.199,105.199c0,16.732-3.933,32.561-10.913,46.62C326.834,268.614,307.68,256.776,282.916,253.81z" fill="#FFFFFF"/>
			<path d="M242.092,41.797c5.809,0,10.52-4.711,10.52-10.52V11.289c0-5.809-4.711-10.52-10.52-10.52     c-5.81,0-10.52,4.711-10.52,10.52v19.988C231.572,37.086,236.282,41.797,242.092,41.797z" fill="#FFFFFF"/>
			<path d="M336.158,67.001c1.657,0.956,3.465,1.412,5.249,1.412c3.636,0,7.172-1.887,9.121-5.262l9.994-17.311     c2.906-5.032,1.181-11.466-3.85-14.37c-5.034-2.906-11.467-1.18-14.37,3.85l-9.994,17.311     C329.402,57.663,331.127,64.097,336.158,67.001z" fill="#FFFFFF"/>
			<path d="M133.656,63.15c1.948,3.375,5.484,5.262,9.12,5.262c1.784,0,3.594-0.456,5.25-1.412c5.032-2.905,6.756-9.339,3.85-14.37     l-9.994-17.311c-2.906-5.032-9.339-6.757-14.37-3.85c-5.032,2.905-6.756,9.339-3.85,14.37L133.656,63.15z" fill="#FFFFFF"/>
		</g>
	</g>
</g>
<g>
</g>
<g>
</g>
<g>
</g>
<g>
</g>
<g>
</g>
<g>
</g>
<g>
</g>
<g>
</g>
<g>
</g>
<g>
</g>
<g>
</g>
<g>
</g>
<g>
</g>
<g>
</g>
<g>
</g>
</svg>
