<?xml version="1.0" encoding="utf-8"?>
<!-- Generator: Adobe Illustrator 17.0.0, SVG Export Plug-In . SVG Version: 6.00 Build 0)  -->
<!DOCTYPE svg PUBLIC "-//W3C//DTD SVG 1.1//EN" "http://www.w3.org/Graphics/SVG/1.1/DTD/svg11.dtd">
<svg version="1.1" id="Capa_1" xmlns="http://www.w3.org/2000/svg" xmlns:xlink="http://www.w3.org/1999/xlink" x="0px" y="0px"
	 width="851px" height="315px" viewBox="0 0 851 315" enable-background="new 0 0 851 315" xml:space="preserve">
<g>
	<g>
		<path fill="#4E5867" d="M541.024,265.066h-21.842c-4.381,0-7.925,3.544-7.925,7.925s3.544,7.925,7.925,7.925h21.842
			c18.105,0,32.859-14.755,32.859-32.859V67.072c0-18.105-14.755-32.859-32.859-32.859H391.223l20.747-20.747
			c3.093-3.093,3.093-8.054,0-11.146s-8.054-3.093-11.146,0l-34.213,34.213c-1.482,1.482-2.319,3.479-2.319,5.605
			c0,2.062,0.838,4.124,2.319,5.605l34.213,34.213c1.546,1.546,3.544,2.319,5.605,2.319s4.059-0.773,5.605-2.319
			c3.093-3.093,3.093-8.054,0-11.146l-20.747-20.747h149.801c9.407,0,17.074,7.667,17.074,17.074v180.92
			C558.098,257.399,550.43,265.066,541.024,265.066z"/>
		<path fill="#4E5867" d="M450.177,233.109c-3.093-3.093-8.054-3.093-11.146,0s-3.093,8.054,0,11.146l20.747,20.747H309.976
			c-9.407,0-17.074-7.667-17.074-17.074V67.072c0-9.407,7.667-17.074,17.074-17.074h21.842c4.381,0,7.925-3.544,7.925-7.925
			s-3.544-7.925-7.925-7.925h-21.842c-18.105,0-32.859,14.755-32.859,32.859v180.92c0,18.105,14.755,32.859,32.859,32.859h149.801
			l-20.747,20.747c-3.093,3.093-3.093,8.054,0,11.146c1.546,1.546,3.544,2.319,5.605,2.319c2.062,0,4.059-0.773,5.605-2.319
			l34.213-34.213c1.482-1.482,2.319-3.479,2.319-5.605c0-2.062-0.838-4.124-2.319-5.605L450.177,233.109z"/>
		<circle fill="#0FC3B8" cx="425.5" cy="157.532" r="10.116"/>
		<circle fill="#0FC3B8" cx="382.138" cy="157.532" r="10.116"/>
		<circle fill="#0FC3B8" cx="468.862" cy="157.532" r="10.116"/>
	</g>
</g>
</svg>
