<?xml version="1.0" encoding="utf-8"?>
<!-- Generator: Adobe Illustrator 17.0.0, SVG Export Plug-In . SVG Version: 6.00 Build 0)  -->
<!DOCTYPE svg PUBLIC "-//W3C//DTD SVG 1.1//EN" "http://www.w3.org/Graphics/SVG/1.1/DTD/svg11.dtd">
<svg version="1.1" id="Layer_1" xmlns="http://www.w3.org/2000/svg" xmlns:xlink="http://www.w3.org/1999/xlink" x="0px" y="0px"
	 width="851px" height="315px" viewBox="0 0 851 315" enable-background="new 0 0 851 315" xml:space="preserve">
<g>
	<g>
		<g>
			<path fill="#0FC3B8" d="M357.25,84.005h63c2.903,0,5.25-2.352,5.25-5.25s-2.346-5.25-5.25-5.25h-63
				c-2.903,0-5.25,2.352-5.25,5.25S354.347,84.005,357.25,84.005z"/>
			<path fill="#0FC3B8" d="M388.75,168.005h-42c-2.903,0-5.25,2.352-5.25,5.25c0,2.898,2.346,5.25,5.25,5.25h42
				c2.903,0,5.25-2.352,5.25-5.25C394,170.357,391.654,168.005,388.75,168.005z"/>
			<path fill="#0FC3B8" d="M373,141.756c0-2.898-2.346-5.25-5.25-5.25h-31.5c-2.903,0-5.25,2.352-5.25,5.25
				c0,2.898,2.347,5.25,5.25,5.25h31.5C370.653,147.005,373,144.653,373,141.756z"/>
			<path fill="#0FC3B8" d="M336.25,115.505h73.5c2.903,0,5.25-2.352,5.25-5.25s-2.346-5.25-5.25-5.25h-73.5
				c-2.903,0-5.25,2.352-5.25,5.25S333.346,115.505,336.25,115.505z"/>
			<path fill="#0FC3B8" d="M430.75,168.005h-21c-2.903,0-5.25,2.352-5.25,5.25c0,2.898,2.346,5.25,5.25,5.25h21
				c2.903,0,5.25-2.352,5.25-5.25C436,170.357,433.653,168.005,430.75,168.005z"/>
			<path fill="#4E5867" d="M505.673,207.984c-2.048,2.048-2.048,5.376,0,7.423l11.141,11.141c1.024,1.029,2.368,1.538,3.712,1.538
				c1.339,0,2.683-0.509,3.712-1.538c2.047-2.048,2.047-5.371,0-7.423l-11.135-11.141
				C511.049,205.937,507.725,205.937,505.673,207.984z"/>
			<path fill="#4E5867" d="M575.309,270.197l-36.792-36.787c-0.982-0.987-2.315-1.538-3.712-1.538H534.8
				c-1.391,0-2.73,0.557-3.717,1.544l-14.805,14.889c-2.047,2.058-2.037,5.376,0.021,7.423c2.063,2.048,5.381,2.042,7.423-0.021
				l11.093-11.151l33.069,33.065c2.972,2.977,4.615,6.93,4.615,11.135c0,4.205-1.643,8.164-4.615,11.135
				c-6.137,6.137-16.123,6.147-22.27,0.006l-62.212-62.213c-2.047-2.048-5.371-2.048-7.423,0c-2.047,2.053-2.047,5.376,0,7.429
				l62.213,62.207c5.113,5.119,11.833,7.676,18.554,7.676c6.72,0,13.45-2.562,18.564-7.676c4.956-4.961,7.691-11.55,7.691-18.564
				C583,281.747,580.265,275.152,575.309,270.197z"/>
			<path fill="#4E5867" d="M520,126.006c0-69.473-56.526-126-126-126s-126,56.527-126,126s56.526,126,126,126
				S520,195.478,520,126.006z M394,241.505c-63.688,0-115.5-51.812-115.5-115.5s51.812-115.5,115.5-115.5s115.5,51.812,115.5,115.5
				S457.688,241.505,394,241.505z"/>
			<path fill="#4E5867" d="M394,21.005c-57.897,0-105,47.103-105,105s47.103,105,105,105s105-47.103,105-105
				S451.897,21.005,394,21.005z M394,220.506c-52.106,0-94.5-42.394-94.5-94.5s42.394-94.5,94.5-94.5s94.5,42.394,94.5,94.5
				S446.106,220.506,394,220.506z"/>
			<path fill="#0FC3B8" d="M451.75,136.505h-63c-2.903,0-5.25,2.352-5.25,5.25c0,2.898,2.346,5.25,5.25,5.25h63
				c2.903,0,5.25-2.352,5.25-5.25C457,138.857,454.653,136.505,451.75,136.505z"/>
			<path fill="#0FC3B8" d="M451.75,105.005h-21c-2.903,0-5.25,2.352-5.25,5.25s2.346,5.25,5.25,5.25h21
				c2.903,0,5.25-2.352,5.25-5.25S454.653,105.005,451.75,105.005z"/>
		</g>
	</g>
</g>
</svg>
