<?xml version="1.0" encoding="utf-8"?>
<!-- Generator: Adobe Illustrator 17.0.0, SVG Export Plug-In . SVG Version: 6.00 Build 0)  -->
<!DOCTYPE svg PUBLIC "-//W3C//DTD SVG 1.1//EN" "http://www.w3.org/Graphics/SVG/1.1/DTD/svg11.dtd">
<svg version="1.1" id="Layer_1" xmlns="http://www.w3.org/2000/svg" xmlns:xlink="http://www.w3.org/1999/xlink" x="0px" y="0px"
	 width="400px" height="300px" viewBox="0 0 400 300" enable-background="new 0 0 400 300" xml:space="preserve">
<g>
	<g>
		<path fill="#0FC3B8" d="M85.132,150c0-63.356,51.512-114.868,114.868-114.868S314.868,86.644,314.868,150
			S263.356,264.868,200,264.868S85.132,213.356,85.132,150z"/>
		<path fill="#FFFFFF" d="M249.816,171.324c1.164-1.164,1.777-2.757,1.777-4.289s-0.613-3.125-1.777-4.289l-45.527-45.527
			c-1.164-1.164-2.696-1.777-4.289-1.777s-3.125,0.613-4.289,1.777l-45.527,45.527c-2.39,2.39-2.39,6.189,0,8.578
			c2.39,2.39,6.189,2.39,8.578,0L200,130.086l41.238,41.238C243.627,173.652,247.488,173.652,249.816,171.324z"/>
	</g>
</g>
</svg>
